<svg aria-hidden="true" style="position: absolute; width: 0; height: 0; overflow: hidden;" version="1.1" xmlns="http://www.w3.org/2000/svg" xmlns:xlink="http://www.w3.org/1999/xlink">
<defs>
<symbol id="x" viewBox="0 0 32 32">
<path d="M22.901 5.657h3.68l-8.040 9.037 9.459 12.297h-7.406l-5.801-7.458-6.637 7.458h-3.682l8.6-9.666-9.074-11.668h7.594l5.243 6.817 6.064-6.817zM21.61 24.824h2.039l-13.163-17.115h-2.188l13.312 17.115z"></path>
</symbol>
<symbol id="menu" viewBox="0 0 32 32">
<path d="M5.333 8h21.333v2.667h-21.333v-2.667zM5.333 14.667h21.333v2.667h-21.333v-2.667zM5.333 21.333h21.333v2.667h-21.333v-2.667z"></path>
</symbol>
<symbol id="basketball" viewBox="0 0 32 32">
<path d="M6.572 25.428c2.527 2.527 5.873 3.917 9.428 3.917s6.903-1.391 9.428-3.917c5.199-5.199 5.199-13.657 0-18.857-2.525-2.525-5.875-3.917-9.428-3.917s-6.903 1.392-9.428 3.919c-5.199 5.197-5.199 13.657 0 18.856zM16.412 5.342c2.227 0.080 4.371 0.863 6.125 2.237l-6.537 6.536-1.947-1.947c1.548-1.972 2.389-4.411 2.359-6.827zM12.147 10.262l-2.683-2.683c1.259-0.987 2.726-1.676 4.291-2.013-0.020 1.648-0.593 3.303-1.608 4.696zM10.248 12.134c-1.358 0.928-2.967 1.42-4.612 1.409 0.346-1.483 1.010-2.874 1.944-4.077l2.668 2.668zM5.348 16.195c0.103 0.003 0.205 0.019 0.308 0.019 2.346 0.007 4.63-0.754 6.503-2.168l1.956 1.955-6.535 6.535c-1.41-1.816-2.193-4.041-2.232-6.34zM21.74 19.855c1.389-1.011 3.040-1.584 4.677-1.608-0.333 1.562-1.016 3.028-1.996 4.289l-2.681-2.681zM22.536 24.422c-1.202 0.94-2.594 1.609-4.079 1.96-0.015-1.651 0.477-3.267 1.409-4.629l2.669 2.669zM15.811 26.67c-2.305-0.037-4.534-0.826-6.348-2.248l6.537-6.536 1.951 1.951c-1.471 1.925-2.212 4.355-2.14 6.833zM26.643 15.59c-2.409-0.024-4.844 0.813-6.811 2.357l-1.947-1.947 6.535-6.535c1.364 1.758 2.141 3.9 2.223 6.124z"></path>
</symbol>
<symbol id="cheese" viewBox="0 0 32 32">
<path d="M20.213 2.667c-0.305-0.046-0.615 0.016-0.88 0.173l-16 9.333c-0.063 0.037-0.122 0.082-0.173 0.133l-0.133 0.107c-0.091 0.105-0.167 0.222-0.227 0.347-0.095 0.176-0.141 0.374-0.133 0.573v13.333c0 0.354 0.14 0.693 0.391 0.943s0.589 0.391 0.943 0.391h24c0.354 0 0.693-0.141 0.943-0.391s0.391-0.589 0.391-0.943v-13.333c0.005-2.574-0.912-5.065-2.585-7.022s-3.991-3.25-6.535-3.645zM20.213 5.4c1.603 0.328 3.069 1.135 4.204 2.313s1.887 2.673 2.156 4.287h-17.64l11.28-6.6zM26.666 25.334h-21.333v-10.667h21.333v10.667zM15.333 20c1.105 0 2-0.895 2-2s-0.895-2-2-2c-1.105 0-2 0.895-2 2s0.895 2 2 2zM25.333 21.334c0 1.473-1.194 2.667-2.667 2.667s-2.667-1.194-2.667-2.667c0-1.473 1.194-2.667 2.667-2.667s2.667 1.194 2.667 2.667zM10.666 22c0 1.105-0.895 2-2 2s-2-0.895-2-2c0-1.105 0.895-2 2-2s2 0.895 2 2z"></path>
</symbol>
<symbol id="chevron-down" viewBox="0 0 32 32">
<path d="M21.724 11.057l-5.724 5.724-5.724-5.724-1.885 1.885 7.609 7.609 7.609-7.609-1.885-1.885z"></path>
</symbol>
<symbol id="chevron-left" viewBox="0 0 32 32">
<path d="M17.724 8.391l-7.609 7.609 7.609 7.609 1.885-1.885-5.724-5.724 5.724-5.724-1.885-1.885z"></path>
</symbol>
<symbol id="chevron-right" viewBox="0 0 32 32">
<path d="M12.943 22.599l7.609-7.609-7.609-7.609-1.885 1.885 5.724 5.724-5.724 5.724 1.885 1.885z"></path>
</symbol>
<symbol id="chevron-up" viewBox="0 0 32 32">
<path d="M8.391 19.057l1.885 1.885 5.724-5.724 5.724 5.724 1.885-1.885-7.609-7.609-7.609 7.609z"></path>
</symbol>
<symbol id="close" viewBox="0 0 32 32">
<path d="M21.589 8.459l-5.657 5.656-5.656-5.656-1.885 1.885 5.656 5.656-5.656 5.656 1.885 1.885 5.656-5.656 5.657 5.656 1.885-1.885-5.656-5.656 5.656-5.656-1.885-1.885z"></path>
</symbol>
<symbol id="facebook" viewBox="0 0 32 32">
<path d="M29.333 16.405c0-7.409-5.969-13.415-13.333-13.415s-13.333 6.006-13.333 13.415c0 6.696 4.876 12.245 11.25 13.252v-9.374h-3.385v-3.878h3.385v-2.955c0-3.362 1.991-5.219 5.036-5.219 1.459 0 2.985 0.262 2.985 0.262v3.301h-1.681c-1.656 0-2.173 1.034-2.173 2.095v2.516h3.698l-0.591 3.878h-3.107v9.374c6.374-1.006 11.25-6.556 11.25-13.252z"></path>
</symbol>
<symbol id="google" viewBox="0 0 32 32">
<path d="M28 15.72c0 5.533-2.947 12.28-11.827 12.28-6.674 0.044-12.122-5.326-12.173-12 0.051-6.674 5.499-12.044 12.173-12 2.761 0.010 5.438 0.95 7.6 2.667 0.149 0.122 0.241 0.301 0.253 0.493 0.001 0.195-0.076 0.382-0.213 0.52-0.868 0.794-1.696 1.63-2.48 2.507-0.228 0.251-0.61 0.286-0.88 0.080-1.232-0.912-2.735-1.381-4.267-1.333-3.94 0-7.133 3.194-7.133 7.133s3.194 7.133 7.133 7.133c4 0 5.693-1.707 6.573-4.733h-6.093c-0.368 0-0.667-0.299-0.667-0.667v-3.533c0-0.368 0.299-0.667 0.667-0.667h10.667c0.307-0.002 0.566 0.228 0.6 0.533 0.049 0.527 0.072 1.057 0.067 1.587z"></path>
</symbol>
<symbol id="health" viewBox="0 0 32 32">
<path d="M26.198 7.048l-7.532 4.349v-8.697h-5.333v8.697l-7.532-4.349-2.667 4.62 7.531 4.348-7.531 4.348 2.667 4.62 7.532-4.348v8.697h5.333v-8.697l7.532 4.348 2.667-4.62-7.531-4.348 7.531-4.348-2.667-4.62z"></path>
</symbol>
<symbol id="instagram" viewBox="0 0 32 32">
<path d="M15.998 6.161c3.206 0 3.585 0.014 4.846 0.071 1.172 0.052 1.804 0.248 2.226 0.412 0.558 0.216 0.961 0.478 1.378 0.895 0.422 0.422 0.679 0.82 0.9 1.378 0.164 0.422 0.361 1.059 0.412 2.226 0.056 1.266 0.071 1.645 0.071 4.847s-0.014 3.585-0.071 4.847c-0.052 1.172-0.248 1.804-0.412 2.227-0.216 0.558-0.478 0.961-0.895 1.377-0.422 0.422-0.82 0.679-1.378 0.9-0.422 0.164-1.060 0.361-2.226 0.412-1.266 0.056-1.645 0.071-4.847 0.071s-3.585-0.014-4.847-0.071c-1.172-0.052-1.804-0.248-2.226-0.412-0.558-0.216-0.961-0.478-1.378-0.895-0.422-0.422-0.679-0.82-0.9-1.378-0.164-0.422-0.361-1.060-0.412-2.226-0.056-1.266-0.071-1.645-0.071-4.847s0.014-3.585 0.071-4.847c0.052-1.172 0.248-1.804 0.412-2.226 0.216-0.558 0.478-0.961 0.895-1.378 0.422-0.422 0.82-0.679 1.378-0.9 0.422-0.164 1.059-0.361 2.226-0.412 1.261-0.056 1.641-0.071 4.847-0.071h0.001zM15.998 4.001c-3.258 0-3.665 0.014-4.945 0.071-1.275 0.056-2.151 0.262-2.91 0.558-0.792 0.309-1.462 0.717-2.127 1.387-0.67 0.666-1.078 1.336-1.387 2.123-0.295 0.764-0.502 1.636-0.558 2.91-0.056 1.285-0.071 1.692-0.071 4.949s0.014 3.665 0.071 4.945c0.056 1.275 0.262 2.151 0.558 2.91 0.31 0.792 0.717 1.462 1.387 2.127 0.665 0.665 1.336 1.078 2.123 1.383 0.764 0.295 1.636 0.502 2.91 0.558 1.279 0.056 1.687 0.071 4.945 0.071s3.666-0.014 4.945-0.071c1.275-0.056 2.151-0.262 2.91-0.558 0.787-0.305 1.458-0.717 2.123-1.383s1.078-1.336 1.383-2.123c0.295-0.764 0.502-1.635 0.558-2.91 0.056-1.279 0.071-1.687 0.071-4.945s-0.014-3.665-0.071-4.945c-0.056-1.275-0.262-2.151-0.558-2.91-0.295-0.797-0.703-1.467-1.373-2.133-0.665-0.665-1.336-1.078-2.123-1.383-0.764-0.295-1.635-0.502-2.91-0.558-1.284-0.061-1.692-0.075-4.949-0.075l-0.001 0.001z"></path>
<path d="M15.998 9.836c-3.402 0-6.163 2.76-6.163 6.163s2.76 6.163 6.163 6.163c3.403 0 6.163-2.76 6.163-6.163s-2.76-6.163-6.163-6.163zM15.998 19.997c-2.208 0-3.998-1.79-3.998-3.998s1.79-3.998 3.998-3.998c2.208 0 3.998 1.79 3.998 3.998s-1.79 3.998-3.998 3.998z"></path>
<path d="M23.843 9.592c0 0.795-0.644 1.439-1.439 1.439s-1.439-0.644-1.439-1.439 0.644-1.439 1.439-1.439c0.795 0 1.439 0.644 1.439 1.439z"></path>
</symbol>
<symbol id="linkedin" viewBox="0 0 32 32">
<path d="M25.75 4h-19.5c-1.237 0-2.25 1.013-2.25 2.25v19.5c0 1.237 1.013 2.25 2.25 2.25h19.5c1.237 0 2.25-1.013 2.25-2.25v-19.5c0-1.237-1.013-2.25-2.25-2.25zM13 23.5h-3v-10.5h3v10.5zM11.5 11.5c-0.829 0-1.5-0.671-1.5-1.5s0.671-1.5 1.5-1.5c0.829 0 1.5 0.671 1.5 1.5s-0.671 1.5-1.5 1.5zM23.5 23.5h-3v-6c0-0.829-0.671-1.5-1.5-1.5s-1.5 0.671-1.5 1.5v6h-3v-10.5h3v1.861c0.619-0.848 1.565-1.861 2.625-1.861 1.866 0 3.375 1.679 3.375 3.75v6.75z"></path>
</symbol>
<symbol id="logo" viewBox="0 0 75 32">
<path d="M66.024 17.087c-0.757-0.025-1.512-0.051-2.27-0.025-3.519 0.148-7.504 0.772-10.007 3.512-1.194 1.308-1.842 2.928-1.75 4.707 0.060 1.006 0.326 1.989 0.782 2.888-0.004 0.008-0.008 0.015-0.013 0.023-0.002 0.004-0.005 0.008-0.007 0.012-0.134 0.229-0.418 0.548-0.704 0.869-0.362 0.407-0.728 0.817-0.8 1.057-0.018 0.061-0.005 0.135 0.013 0.194 0.059 0.2 0.265 0.356 0.426 0.479l0.012 0.009c0.354-0.348 0.676-0.726 0.997-1.104l0.026-0.030 0.651-0.795c1.728 0.98 3.424 1.289 5.363 0.751 2.373-0.658 4.208-2.347 5.39-4.468 1.317-2.361 1.923-5.394 2.011-8.076l-0.12-0.004zM62.586 19.454c0.009 0.002 0.018 0.005 0.027 0.007 0.084 0.021 0.161 0.040 0.232 0.097 0.076 0.061 0.136 0.157 0.131 0.257-0.006 0.118-0.049 0.178-0.131 0.261-0.254 0.257-0.561 0.483-0.862 0.704-0.133 0.098-0.265 0.195-0.391 0.294-0.797 0.617-1.583 1.248-2.357 1.894 0.489-0.118 2.127-0.399 2.554-0.253 0.132 0.046 0.176 0.11 0.229 0.233-0.012 0.182-0.067 0.293-0.241 0.369-0.079 0.035-0.667 0.092-1.326 0.156-0.751 0.073-1.594 0.155-1.884 0.223-0.183 0.043-0.328 0.105-0.482 0.213-0.233 0.163-0.444 0.367-0.652 0.569-0.077 0.075-0.154 0.149-0.232 0.221-0.683 0.634-1.353 1.273-2.008 1.936 0.465 0.103 1.149 0.070 1.812 0.038 0.746-0.036 1.464-0.070 1.811 0.092 0.057 0.073 0.073 0.15 0.066 0.243-0.007 0.075-0.049 0.121-0.102 0.17-0.286 0.261-3.11 0.177-3.548 0.128-0.018-0.003-0.036-0.006-0.055-0.009-0.097-0.017-0.206-0.035-0.298-0.016-0.709 0.146-1.681 1.244-2.103 1.795l0.026-0.060c0.197-0.459 0.395-0.921 0.669-1.341 0.464-0.712 1.78-2.029 2.425-2.652 0.103-0.099 0.222-0.2 0.345-0.303 0.272-0.229 0.562-0.473 0.722-0.744 0.162-0.273 0.258-0.844 0.359-1.442 0.127-0.753 0.262-1.55 0.543-1.857 0.082-0.089 0.107-0.095 0.219-0.106 0.111 0.049 0.182 0.096 0.245 0.204 0.046 0.079 0.052 0.157 0.040 0.244-0.029 0.212-0.103 0.435-0.176 0.653-0.039 0.118-0.078 0.235-0.109 0.348-0.106 0.384-0.186 0.773-0.266 1.163-0.009 0.044-0.018 0.088-0.027 0.132 0.372-0.359 0.791-0.678 1.206-0.994 0.134-0.102 0.269-0.205 0.401-0.308 0.2-0.156 0.401-0.312 0.601-0.468 0.875-0.679 1.754-1.362 2.586-2.088z"></path>
<path d="M10.949 0.269c-0.014 0.001-0.027 0.004-0.041 0.007-1.502 0.18-2.862 0.867-3.809 2.064-1.159 1.466-1.477 3.339-1.256 5.163 0.191 1.58 0.914 3.073 2.19 4.055 1.274 0.981 2.757 1.259 4.331 1.136 1.531-0.21 2.912-0.903 3.862-2.145 1.103-1.441 1.407-3.344 1.166-5.111-0.219-1.605-1.017-3.1-2.323-4.078-1.183-0.886-2.655-1.246-4.12-1.091zM11.44 2.315c0.822-0.010 1.566 0.144 2.213 0.679 0.791 0.655 1.149 1.688 1.24 2.683 0.117 1.281-0.023 2.795-0.884 3.819-0.593 0.705-1.353 0.987-2.249 1.066-0.017 0.002-0.033 0.004-0.050 0.005-0.76 0.039-1.551-0.186-2.139-0.675-0.807-0.672-1.149-1.694-1.235-2.712-0.107-1.275-0.008-2.829 0.864-3.849 0.59-0.691 1.357-0.952 2.239-1.016z"></path>
<path d="M29.227 3.484c-0.005 0.001-0.010 0.001-0.016 0.002-1.027 0.099-1.903 0.506-2.571 1.307-0.836 1.001-1.12 2.406-0.996 3.68 0.105 1.073 0.545 2.133 1.4 2.822 0.862 0.695 1.966 0.859 3.042 0.729 0.848-0.103 1.407-0.481 1.993-1.078 0.001 0.058 0.002 0.117 0.003 0.177 0.016 0.81 0.034 1.788-0.566 2.39-0.404 0.404-0.982 0.49-1.529 0.479-0.591-0.012-1.186-0.149-1.607-0.597-0.119-0.127-0.197-0.285-0.274-0.44-0.014-0.027-0.027-0.055-0.041-0.082-0.214-0.001-0.437-0.008-0.663-0.015-0.547-0.018-1.113-0.037-1.623 0.039-0.044 0.117-0.011 0.244 0.020 0.365 0.006 0.024 0.012 0.048 0.018 0.071 0.305 0.913 0.955 1.617 1.812 2.051 1.216 0.617 2.947 0.671 4.23 0.241 0.944-0.316 1.758-0.956 2.203-1.856 0.171-0.353 0.281-0.733 0.325-1.123 0.088-0.714 0.081-1.465 0.073-2.202-0.003-0.268-0.005-0.534-0.003-0.797l0.014-5.965c-0.234 0-0.469 0.001-0.704 0.002-0.549 0.002-1.099 0.005-1.648-0.002l-0.001 0.781c-0.862-0.712-1.728-1.070-2.865-0.983-0.010 0.001-0.020 0.002-0.030 0.003zM29.85 5.388c0.457-0.039 0.936 0.042 1.33 0.284 0.45 0.277 0.73 0.726 0.853 1.234 0.177 0.729 0.164 1.729-0.245 2.378-0.325 0.516-0.794 0.71-1.365 0.83-0.505 0.056-1.026-0.009-1.454-0.303-0.505-0.346-0.778-0.914-0.879-1.504-0.123-0.714-0.039-1.55 0.398-2.147 0.339-0.464 0.809-0.689 1.363-0.772z"></path>
<path d="M45.162 20.62c-0.749-0.619-1.686-0.85-2.643-0.827-1.12 0.087-1.796 0.422-2.535 1.26l-0.003-1.065-2.384 0.001 0.001 12.089 2.425-0.002-0.003-1.782 0.003-2.256c0.878 0.731 1.818 1.104 2.974 1.003 1.018-0.088 1.907-0.551 2.564-1.334 0.919-1.095 1.19-2.617 1.056-4.008-0.111-1.151-0.541-2.323-1.454-3.078zM41.869 21.785c0.482-0.051 1 0.061 1.396 0.346 0.544 0.39 0.802 1.030 0.891 1.673 0.115 0.837 0.032 1.818-0.51 2.502-0.371 0.468-0.82 0.664-1.395 0.742-0.502 0.049-1.051-0.066-1.462-0.365-0.469-0.34-0.716-0.858-0.806-1.419-0.136-0.848-0.112-2.001 0.425-2.713 0.372-0.492 0.869-0.695 1.461-0.767z"></path>
<path d="M36.229 24.051c-0.198-2.57-2.44-4.494-5.010-4.3-2.576 0.194-4.506 2.442-4.307 5.018s2.45 4.502 5.025 4.299c2.57-0.202 4.49-2.447 4.292-5.017zM31.365 21.696c0.446-0.052 0.942 0.060 1.326 0.291 0.524 0.315 0.845 0.849 0.983 1.434 0.201 0.848 0.164 1.954-0.317 2.707-0.349 0.545-0.826 0.804-1.442 0.933-0.561 0.023-1.059-0.022-1.536-0.353-0.533-0.37-0.82-0.974-0.926-1.597-0.143-0.841-0.077-1.868 0.441-2.576 0.37-0.505 0.867-0.745 1.47-0.838z"></path>
<path d="M9.908 16.756c0.181-0.025 0.376-0.022 0.558-0.028 1.327-0.043 2.751 0.186 3.748 1.137 0.729 0.695 0.944 1.528 0.964 2.506l-2.403 0.009c-0.028-0.481-0.1-0.865-0.475-1.208-0.501-0.458-1.253-0.567-1.909-0.534-0.515 0.026-1.052 0.167-1.401 0.574-0.253 0.296-0.336 0.68-0.294 1.061 0.041 0.368 0.227 0.66 0.532 0.868 0.476 0.324 1.086 0.446 1.638 0.57 1.216 0.273 2.735 0.489 3.711 1.32 0.598 0.51 0.877 1.186 0.934 1.959 0.069 0.945-0.183 1.831-0.815 2.548-0.878 0.996-2.187 1.4-3.474 1.484-1.421 0.098-2.991-0.184-4.103-1.132-0.815-0.695-1.161-1.585-1.243-2.633l2.448-0.004c0.112 0.52 0.3 0.953 0.729 1.288 0.59 0.461 1.418 0.553 2.142 0.472 0.565-0.063 1.158-0.284 1.512-0.751 0.22-0.291 0.298-0.651 0.248-1.010-0.051-0.37-0.26-0.671-0.57-0.875-0.35-0.23-0.781-0.343-1.18-0.449-1.317-0.35-2.896-0.465-3.993-1.333-0.593-0.469-0.94-1.109-1.027-1.861-0.107-0.925 0.072-1.792 0.66-2.53 0.736-0.923 1.928-1.318 3.061-1.449z"></path>
<path d="M43.096 4.11c-0.862-0.562-2-0.661-3.001-0.623-1.084 0.072-2.349 0.321-3.096 1.189-0.4 0.464-0.55 1.023-0.575 1.622l2.239 0.009c0.244-0.489 0.541-0.832 1.082-1.003 0.49-0.155 1.13-0.155 1.586 0.095 0.264 0.145 0.474 0.393 0.559 0.684 0.047 0.159 0.061 0.33 0.074 0.497 0.002 0.027 0.004 0.053 0.007 0.080-0.153 0.171-0.289 0.289-0.502 0.378-0.504 0.212-1.109 0.251-1.684 0.289-0.2 0.013-0.397 0.026-0.584 0.046-1.684 0.178-3.253 0.8-3.128 2.792 0.025 0.401 0.13 0.748 0.301 1.109 0.439 0.701 1.030 1.137 1.841 1.318 0.982 0.219 2.17 0.116 3.032-0.433 0.298-0.19 0.547-0.425 0.787-0.683 0.049 0.346 0.118 0.678 0.203 1.017l2.254-0.004c-0.249-1.19-0.23-2.424-0.211-3.646 0.005-0.33 0.010-0.658 0.010-0.985-0-0.113 0.001-0.228 0.002-0.344 0.006-0.725 0.012-1.508-0.22-2.179-0.177-0.514-0.522-0.928-0.974-1.223zM41.895 8.333l0.068 0.037c0.097 0.507-0.029 1.177-0.29 1.612-0.286 0.478-0.749 0.838-1.293 0.968-0.498 0.119-0.939 0.054-1.371-0.219-0.179-0.162-0.323-0.331-0.399-0.565-0.087-0.27-0.072-0.596 0.064-0.848 0.303-0.559 1.387-0.705 2.286-0.826 0.363-0.049 0.696-0.094 0.935-0.16z"></path>
<path d="M17.012 16.657l2.412 0 0.002 4.473c0.109-0.142 0.219-0.285 0.343-0.414 0.612-0.637 1.449-0.921 2.319-0.937 0.903-0.016 1.846 0.217 2.503 0.867 0.416 0.411 0.688 0.953 0.815 1.521 0.18 0.809 0.089 1.73 0.089 2.558l0.001 4.073-2.41 0.001c-0.020-1.091-0.002-2.185-0.001-3.277-0.002-0.881 0.218-2.5-0.4-3.196-0.282-0.318-0.68-0.45-1.094-0.472-0.562-0.030-1.189 0.042-1.613 0.447-0.262 0.251-0.419 0.592-0.492 0.944-0.148 0.71-0.066 1.53-0.063 2.253l0.002 3.3-2.412 0.001c-0.026-1.374-0.002-2.753-0.002-4.128l0.001-8.014z"></path>
<path d="M51.308 3.485c0.134-0.010 0.268-0.016 0.403-0.016 0.867-0.005 1.665 0.249 2.288 0.87 0.402 0.406 0.683 0.917 0.811 1.475 0.195 0.836 0.091 1.808 0.091 2.667l0.005 4.010h-2.393l0.003-3.639c0-0.658 0.050-1.371-0.038-2.023-0.038-0.278-0.103-0.552-0.269-0.783-0.237-0.33-0.637-0.528-1.036-0.572-0.653-0.073-1.223 0.029-1.752 0.428-0.263 0.296-0.382 0.548-0.458 0.937-0.125 0.636-0.054 1.374-0.053 2.021l0.006 3.631-2.466 0.001 0.004-8.808 2.375 0.001c0.001 0.385 0.005 0.77 0.011 1.155 0.059-0.077 0.118-0.153 0.178-0.228 0.594-0.739 1.372-1.026 2.29-1.127z"></path>
<path d="M65.334 3.486c0.993-0.061 1.986 0.105 2.847 0.625 1.002 0.606 1.533 1.491 1.81 2.606-0.797-0.010-1.595-0.010-2.392-0.002-0.185-0.437-0.448-0.815-0.847-1.083-0.414-0.278-0.931-0.395-1.421-0.286-0.565 0.125-1.035 0.466-1.343 0.955-0.488 0.776-0.536 1.919-0.316 2.789 0.155 0.613 0.498 1.193 1.061 1.511 0.461 0.261 1.061 0.32 1.567 0.165 0.661-0.203 1.028-0.738 1.323-1.323l2.321-0.002c-0.166 0.655-0.391 1.249-0.821 1.779-0.721 0.887-1.782 1.359-2.905 1.475-1.239 0.128-2.485-0.158-3.459-0.958-0.957-0.785-1.491-1.931-1.597-3.154-0.111-1.28 0.156-2.576 0.999-3.576 0.816-0.967 1.936-1.411 3.172-1.522z"></path>
<path d="M24.047 3.529c0.223-0.014 0.446 0.013 0.668 0.032l-0.001 2.251-0.358-0.003c-0.793-0.002-1.693 0.050-2.28 0.661-0.269 0.28-0.421 0.627-0.503 1.002-0.145 0.661-0.072 1.42-0.070 2.096l0.005 2.921c-0.71 0.002-1.689 0.087-2.375-0.019-0.070-0.1-0.050-0.198-0.054-0.317l0-8.468 2.381-0.001c0.011 0.409 0.026 0.817 0.044 1.225 0.093-0.152 0.193-0.295 0.308-0.431 0.556-0.66 1.412-0.877 2.234-0.949z"></path>
<path d="M57.129 3.684l2.454 0.002-0.002 5.833c0 0.984 0.055 1.992-0.011 2.972l-2.449 0.001c0.039-1.143 0.017-2.292 0.017-3.436l-0.010-5.372z"></path>
<path d="M57.068 0.26l2.72-0.002c-0.006 0.679-0.005 1.358 0.002 2.037l-2.722 0.001v-2.036z"></path>
</symbol>
<symbol id="restaurant" viewBox="0 0 32 32">
<path d="M16 13.333h-2.667v-9.333h-2.667v9.333h-2.667v-9.333h-2.667v10.667c0 2.205 1.795 4 4 4h1.333v9.333h2.667v-9.333h1.333c2.205 0 4-1.795 4-4v-10.667h-2.667v9.333zM25.333 4h-1.333c-1.545 0-2.667 1.683-2.667 4v10.667h2.667v9.333h2.667v-22.667c0-0.354-0.141-0.693-0.391-0.943s-0.589-0.391-0.943-0.391z"></path>
</symbol>
<symbol id="star-full" viewBox="0 0 34 32">
<path d="M15.277 1.031c0.579-1.375 2.551-1.375 3.13 0l3.417 8.116c0.244 0.58 0.796 0.976 1.43 1.026l8.869 0.702c1.503 0.119 2.112 1.972 0.967 2.941l-6.757 5.718c-0.483 0.408-0.694 1.049-0.546 1.66l2.064 8.55c0.35 1.449-1.245 2.594-2.532 1.817l-7.593-4.582c-0.542-0.327-1.224-0.327-1.767 0l-7.593 4.582c-1.287 0.776-2.882-0.369-2.532-1.817l2.064-8.55c0.147-0.611-0.063-1.252-0.546-1.66l-6.757-5.718c-1.145-0.969-0.536-2.822 0.967-2.941l8.869-0.702c0.633-0.050 1.185-0.446 1.429-1.026l3.417-8.116z"></path>
</symbol>
<symbol id="star-empty" viewBox="0 0 34 32" fill="none">
<path stroke="#000" stroke-linejoin="miter" stroke-linecap="butt" stroke-miterlimit="4" stroke-width="1.6842" d="M16.053 1.359c0.29-0.688 1.289-0.688 1.579 0l3.416 8.115c0.368 0.873 1.197 1.465 2.14 1.539l8.868 0.702c0.771 0.061 1.046 0.986 0.49 1.457l-6.758 5.719c-0.724 0.612-1.044 1.579-0.821 2.502l2.066 8.549c0.167 0.694-0.609 1.303-1.28 0.898h-0.002l-7.59-4.581c-0.81-0.489-1.828-0.489-2.638 0l-7.592 4.581c-0.671 0.405-1.447-0.204-1.28-0.898l2.066-8.549c0.223-0.923-0.097-1.889-0.821-2.502l-6.758-5.719c-0.556-0.472-0.281-1.396 0.49-1.457l8.868-0.702c0.943-0.075 1.772-0.666 2.14-1.539l3.416-8.115z"></path>
</symbol>
<symbol id="youtube" viewBox="0 0 32 32">
<path d="M28.791 9.604c-0.152-0.563-0.449-1.077-0.861-1.49s-0.925-0.711-1.489-0.864c-2.088-0.573-10.441-0.583-10.441-0.583s-8.352-0.009-10.441 0.539c-0.563 0.16-1.075 0.462-1.487 0.878s-0.711 0.929-0.867 1.493c-0.551 2.088-0.556 6.419-0.556 6.419s-0.005 4.352 0.541 6.419c0.307 1.143 1.207 2.045 2.351 2.353 2.109 0.573 10.44 0.583 10.44 0.583s8.353 0.009 10.441-0.537c0.563-0.153 1.077-0.45 1.49-0.862s0.712-0.925 0.866-1.488c0.552-2.087 0.556-6.416 0.556-6.416s0.027-4.353-0.543-6.441zM13.328 20.007l0.007-8 6.943 4.007-6.949 3.993z"></path>
</symbol>
<symbol id="mailbox" viewBox="0 0 32 32">
<path d="M26.667 5.333h-21.333c-1.471 0-2.667 1.196-2.667 2.667v16c0 1.471 1.196 2.667 2.667 2.667h21.333c1.471 0 2.667-1.196 2.667-2.667v-16c0-1.471-1.196-2.667-2.667-2.667zM26.667 8v0.681l-10.667 8.297-10.667-8.296v-0.683h21.333zM5.333 24v-11.941l9.848 7.66c0.233 0.183 0.522 0.283 0.819 0.283s0.585-0.1 0.819-0.283l9.848-7.66 0.003 11.941h-21.336z"></path>
</symbol>
<symbol id="phone" viewBox="0 0 32 32">
<path d="M23.609 16.391c-0.124-0.124-0.271-0.222-0.432-0.289s-0.335-0.102-0.51-0.102c-0.175 0-0.348 0.035-0.51 0.102s-0.309 0.165-0.433 0.289l-2.125 2.125c-0.985-0.293-2.824-0.96-3.989-2.125s-1.832-3.004-2.125-3.989l2.125-2.125c0.124-0.124 0.222-0.271 0.289-0.432s0.102-0.335 0.102-0.51-0.034-0.348-0.102-0.51c-0.067-0.162-0.165-0.309-0.289-0.432l-5.333-5.333c-0.124-0.124-0.271-0.222-0.432-0.289s-0.335-0.102-0.51-0.102c-0.175 0-0.348 0.035-0.51 0.102s-0.309 0.165-0.432 0.289l-3.616 3.616c-0.507 0.507-0.792 1.203-0.781 1.913 0.031 1.899 0.533 8.493 5.731 13.691s11.792 5.699 13.692 5.731h0.037c0.704 0 1.369-0.277 1.873-0.781l3.616-3.616c0.124-0.124 0.222-0.271 0.289-0.432s0.102-0.335 0.102-0.51c0-0.175-0.035-0.349-0.102-0.51s-0.165-0.309-0.289-0.432l-5.333-5.335zM23.44 25.34c-1.664-0.028-7.357-0.475-11.831-4.949-4.488-4.488-4.923-10.201-4.949-11.832l2.673-2.673 3.448 3.448-1.724 1.724c-0.157 0.157-0.272 0.35-0.335 0.562s-0.073 0.437-0.027 0.654c0.032 0.153 0.815 3.789 3.028 6.003s5.849 2.996 6.003 3.028c0.217 0.047 0.442 0.038 0.654-0.025s0.406-0.179 0.562-0.336l1.725-1.724 3.448 3.448-2.675 2.673z"></path>
</symbol>
</defs>
</svg>
