<svg viewBox="0 0 32 32" xmlns="http://www.w3.org/2000/svg" xmlns:xlink="http://www.w3.org/1999/xlink" fill="none" customFrame="#000000">
	<rect id="favicon" width="32.000000" height="32.000000" x="0.000000" y="0.000000" fill="rgb(209,221,204)" />
	<path id="Vector" d="M27.8059 4.97233C26.5859 4.93158 25.3699 4.89096 24.1489 4.9317C18.4797 5.17023 12.0594 6.17508 8.02798 10.5903C6.10448 12.6977 5.06064 15.308 5.20806 18.1741C5.30448 19.795 5.73347 21.3789 6.4685 22.8273C6.46171 22.8396 6.45492 22.8518 6.44813 22.8638C6.44445 22.8703 6.44076 22.8768 6.43706 22.8832C6.22083 23.2521 5.76373 23.7654 5.30273 24.283C4.71945 24.9379 4.12991 25.5999 4.014 25.9854C3.98465 26.0832 4.00631 26.2027 4.03427 26.2984C4.12967 26.6208 4.46109 26.8727 4.72114 27.0703L4.74064 27.0852C5.311 26.5243 5.82895 25.9151 6.34686 25.3059L6.38815 25.2574L7.43619 23.9774C10.2198 25.5557 12.953 26.0539 16.0755 25.1875C19.8987 24.1269 22.8549 21.4069 24.7595 17.9896C26.8808 14.1852 27.8575 9.30019 27.9994 4.97879L27.8059 4.97233ZM22.268 8.78533C22.2826 8.78907 22.297 8.79272 22.3113 8.79632C22.447 8.83052 22.5701 8.86154 22.6851 8.95302C22.8081 9.05077 22.9045 9.20664 22.8961 9.36629C22.8863 9.55718 22.8165 9.6531 22.6851 9.78656C22.2762 10.2005 21.7815 10.5641 21.296 10.9211C21.0815 11.0789 20.8687 11.2353 20.6659 11.3942C19.3817 12.3884 18.1164 13.4055 16.8692 14.4452C17.6566 14.2544 20.2963 13.8023 20.9831 14.0371C21.1955 14.1105 21.2661 14.2146 21.3527 14.413C21.3338 14.7065 21.2444 14.8846 20.9649 15.0076C20.8379 15.0638 19.8911 15.1558 18.8293 15.2591C17.6199 15.3767 16.2607 15.5088 15.7946 15.6189C15.4991 15.6888 15.2657 15.7873 15.0177 15.9613C14.6423 16.2246 14.3029 16.5533 13.9679 16.8778C13.8434 16.9984 13.7194 17.1184 13.5944 17.2343C12.494 18.2558 11.4145 19.285 10.3595 20.354C11.109 20.5196 12.2111 20.4665 13.278 20.4152C14.4798 20.3573 15.6372 20.3016 16.1957 20.5629C16.2872 20.6803 16.3137 20.8046 16.3012 20.9541C16.2907 21.0743 16.2222 21.1498 16.137 21.2273C15.6758 21.6472 11.1267 21.5131 10.421 21.4327C10.3924 21.4282 10.3629 21.4232 10.3327 21.418C10.1756 21.3911 10.0011 21.3612 9.85225 21.3922C8.7099 21.6277 7.14482 23.3968 6.465 24.2834L6.50659 24.1864C6.8238 23.4463 7.14244 22.7027 7.5836 22.0259C8.3305 20.8794 10.451 18.7568 11.4907 17.7534C11.6559 17.5941 11.8486 17.4319 12.047 17.2649C12.4855 16.8958 12.9521 16.503 13.2109 16.0668C13.4716 15.6271 13.6267 14.7079 13.7896 13.743C13.9943 12.5305 14.2112 11.2459 14.6648 10.7505C14.7969 10.6065 14.8367 10.598 15.0177 10.5794C15.1965 10.6578 15.3111 10.734 15.4124 10.9075C15.4865 11.034 15.4963 11.1603 15.4767 11.3013C15.43 11.6429 15.31 12.0023 15.1926 12.354C15.1291 12.5442 15.0663 12.7322 15.0163 12.914C14.8462 13.532 14.7172 14.1599 14.5884 14.7873C14.5739 14.8579 14.5592 14.9293 14.5447 14.9999C15.1446 14.4221 15.8188 13.9084 16.4872 13.3991C16.7039 13.234 16.9199 13.0694 17.1326 12.9032C17.4545 12.6516 17.7779 12.4005 18.1016 12.1492C19.5109 11.0546 20.9277 9.95431 22.268 8.78533Z" fill="rgb(1,4,0)" fill-rule="nonzero" />
</svg>
